<?xml version="1.0" encoding="utf-8"?>
<!-- Generator: Adobe Illustrator 16.0.0, SVG Export Plug-In . SVG Version: 6.00 Build 0)  -->
<!DOCTYPE svg PUBLIC "-//W3C//DTD SVG 1.1//EN" "http://www.w3.org/Graphics/SVG/1.1/DTD/svg11.dtd">
<svg version="1.1" id="Layer_1" xmlns="http://www.w3.org/2000/svg" xmlns:xlink="http://www.w3.org/1999/xlink" x="0px" y="0px"
	 width="333.087px" height="314.9px" viewBox="0 0 333.087 314.9" enable-background="new 0 0 333.087 314.9" xml:space="preserve">
<g>
	<path fill="#39B54A" d="M69.488,102.861l-27.5-27.511C9.2,124.993,9.2,189.898,41.976,239.53l27.512-27.5
		C50.457,178.245,50.457,136.659,69.488,102.861z"/>
	<path fill="#F7941E" d="M111.955,254.508l-27.512,27.501c49.632,32.788,114.548,32.788,164.193,0l-27.5-27.501
		C187.338,273.538,145.752,273.538,111.955,254.508z"/>
	<path fill="#00AEEF" d="M221.123,60.395l27.501-27.512c-49.634-32.775-114.537-32.775-164.17,0l27.501,27.512
		C145.752,41.364,187.338,41.364,221.123,60.395z"/>
	<path fill="#D24632" d="M291.102,75.36l-27.501,27.5c19.02,33.786,19.032,75.372,0,109.169l27.501,27.5
		C323.889,189.898,323.889,124.993,291.102,75.36z"/>
	<path fill="#4A4A4A" d="M166.545,249.902c51.054,0,92.452-41.385,92.452-92.451c0-51.065-41.398-92.464-92.452-92.464
		c-51.066,0-92.464,41.399-92.464,92.464c0,18.103,5.229,34.984,14.215,49.245l-40.705,40.705
		c8.293,10.948,18.056,20.71,29.005,28.992l40.704-40.705C131.561,244.687,148.43,249.902,166.545,249.902z M95.72,157.452
		c0-39.118,31.706-70.825,70.825-70.825c39.107,0,70.813,31.707,70.813,70.825c0,39.107-31.706,70.813-70.813,70.813
		C127.426,228.265,95.72,196.559,95.72,157.452z"/>
</g>
</svg>
