<?xml version="1.0" encoding="utf-8"?>
<!-- Generator: Adobe Illustrator 16.0.0, SVG Export Plug-In . SVG Version: 6.00 Build 0)  -->
<!DOCTYPE svg PUBLIC "-//W3C//DTD SVG 1.1//EN" "http://www.w3.org/Graphics/SVG/1.1/DTD/svg11.dtd">
<svg version="1.1" id="Layer_1" xmlns="http://www.w3.org/2000/svg" xmlns:xlink="http://www.w3.org/1999/xlink" x="0px" y="0px"
	 width="574px" height="379px" viewBox="0 0 574 379" enable-background="new 0 0 574 379" xml:space="preserve">
<g>
	<g>
		<path fill="#39B54A" d="M208.555,82.642l-22.223-22.238c-26.502,40.125-26.502,92.581-0.015,132.698l22.238-22.23
			C193.172,143.568,193.172,109.952,208.555,82.642z"/>
		<path fill="#F7941E" d="M242.878,205.202l-22.237,22.23c40.117,26.502,92.581,26.502,132.705,0l-22.224-22.23
			C303.806,220.585,270.197,220.585,242.878,205.202z"/>
		<path fill="#00AEEF" d="M331.109,48.318l22.23-22.238c-40.117-26.488-92.573-26.488-132.691,0l22.23,22.238
			C270.197,32.935,303.806,32.935,331.109,48.318z"/>
		<path fill="#D24632" d="M387.67,60.411l-22.224,22.231c15.369,27.303,15.376,60.913,0,88.23l22.224,22.23
			C414.172,152.984,414.172,100.529,387.67,60.411z"/>
		<path fill="#4A4A4A" d="M287.001,201.486c41.265,0,74.723-33.45,74.723-74.722c0-41.279-33.458-74.737-74.723-74.737
			c-41.272,0-74.737,33.458-74.737,74.737c0,14.625,4.228,28.27,11.494,39.8l-32.902,32.895c6.703,8.854,14.597,16.74,23.442,23.436
			l32.902-32.902C258.724,197.265,272.361,201.486,287.001,201.486z M229.754,126.764c0-31.618,25.629-57.247,57.247-57.247
			c31.604,0,57.232,25.629,57.232,57.247c0,31.603-25.629,57.232-57.232,57.232C255.383,183.996,229.754,158.367,229.754,126.764z"
			/>
	</g>
	<g>
		<path fill="#4A4A4A" d="M24.555,351.833L9.381,287.927h15.455l4.834,26.357c1.421,7.59,2.75,15.838,3.795,22.281h0.188
			c1.046-6.92,2.562-14.598,4.171-22.469l5.404-26.17H58.59l5.123,26.928c1.421,7.49,2.46,14.314,3.413,21.43h0.188
			c0.945-7.115,2.374-14.604,3.701-22.188l5.209-26.17h14.698l-16.494,63.906h-15.65l-5.404-27.498
			c-1.227-6.443-2.273-12.418-3.03-19.719h-0.188c-1.141,7.207-2.187,13.275-3.702,19.719l-6.068,27.498H24.555z"/>
		<path fill="#4A4A4A" d="M98.44,288.778c4.459-0.758,10.715-1.32,19.532-1.32c8.911,0,15.268,1.703,19.532,5.115
			c4.077,3.225,6.826,8.535,6.826,14.791s-2.085,11.566-5.873,15.174c-4.936,4.641-12.237,6.732-20.766,6.732
			c-1.897,0-3.608-0.102-4.928-0.289v22.852H98.44V288.778z M112.763,317.798c1.227,0.281,2.749,0.375,4.834,0.375
			c7.677,0,12.417-3.889,12.417-10.426c0-5.881-4.076-9.387-11.285-9.387c-2.937,0-4.928,0.281-5.967,0.57V317.798z"/>
		<path fill="#4A4A4A" d="M172.716,288.778c5.311-0.852,12.229-1.32,19.532-1.32c12.136,0,20.008,2.178,26.17,6.825
			c6.638,4.929,10.809,12.8,10.809,24.077c0,12.23-4.459,20.672-10.621,25.889c-6.731,5.592-16.971,8.248-29.482,8.248
			c-7.497,0-12.8-0.477-16.407-0.945V288.778z M187.226,340.931c1.234,0.281,3.226,0.281,5.022,0.281
			c13.089,0.094,21.618-7.107,21.618-22.375c0.094-13.275-7.678-20.289-20.103-20.289c-3.218,0-5.303,0.281-6.537,0.57V340.931z"/>
		<path fill="#4A4A4A" d="M253.528,292.573c0,3.982-3.038,7.209-7.778,7.209c-4.554,0-7.584-3.227-7.49-7.209
			c-0.094-4.17,2.937-7.303,7.584-7.303C250.49,285.271,253.435,288.403,253.528,292.573z M238.643,351.833v-46.365h14.409v46.365
			H238.643z"/>
		<path fill="#4A4A4A" d="M264.625,320.735c0-6.826-0.194-11.285-0.382-15.268h12.417l0.477,8.535h0.382
			c2.367-6.732,8.061-9.574,12.512-9.574c1.328,0,1.992,0,3.038,0.188v13.557c-1.046-0.188-2.28-0.375-3.89-0.375
			c-5.311,0-8.91,2.844-9.863,7.295c-0.188,0.953-0.281,2.086-0.281,3.225v23.516h-14.409V320.735z"/>
		<path fill="#4A4A4A" d="M311.006,333.247c0.476,5.973,6.35,8.824,13.081,8.824c4.936,0,8.918-0.664,12.801-1.898l1.897,9.762
			c-4.741,1.898-10.521,2.844-16.783,2.844c-15.737,0-24.741-9.098-24.741-23.609c0-11.754,7.295-24.74,23.414-24.74
			c14.986,0,20.672,11.66,20.672,23.131c0,2.469-0.281,4.648-0.477,5.688H311.006z M327.977,323.39c0-3.506-1.516-9.387-8.153-9.387
			c-6.068,0-8.536,5.498-8.911,9.387H327.977z"/>
		<path fill="#4A4A4A" d="M384.79,350.692c-2.562,1.141-7.396,2.086-12.894,2.086c-14.979,0-24.554-9.098-24.554-23.703
			c0-13.557,9.286-24.646,26.545-24.646c3.795,0,7.966,0.664,10.996,1.797l-2.272,10.715c-1.71-0.758-4.265-1.422-8.06-1.422
			c-7.584,0-12.519,5.404-12.418,12.986c0,8.537,5.686,12.996,12.699,12.996c3.413,0,6.068-0.57,8.254-1.422L384.79,350.692z"/>
		<path fill="#4A4A4A" d="M410.405,292.198v13.27h10.339v10.621h-10.339v16.781c0,5.594,1.327,8.154,5.692,8.154
			c1.804,0,3.226-0.188,4.265-0.383l0.094,10.91c-1.891,0.758-5.304,1.227-9.388,1.227c-4.64,0-8.528-1.609-10.809-3.977
			c-2.647-2.756-3.976-7.207-3.976-13.752v-18.961h-6.169v-10.621h6.169v-10.053L410.405,292.198z"/>
		<path fill="#4A4A4A" d="M474.413,328.13c0,16.971-12.036,24.75-24.461,24.75c-13.558,0-23.983-8.918-23.983-23.898
			c0-14.979,9.856-24.553,24.741-24.553C464.932,304.429,474.413,314.19,474.413,328.13z M440.854,328.606
			c0,7.959,3.319,13.934,9.481,13.934c5.592,0,9.192-5.592,9.192-13.934c0-6.926-2.655-13.939-9.192-13.939
			C443.415,314.667,440.854,321.774,440.854,328.606z"/>
		<path fill="#4A4A4A" d="M483.359,320.735c0-6.826-0.194-11.285-0.382-15.268h12.417l0.477,8.535h0.382
			c2.367-6.732,8.061-9.574,12.512-9.574c1.328,0,1.992,0,3.038,0.188v13.557c-1.046-0.188-2.28-0.375-3.89-0.375
			c-5.311,0-8.91,2.844-9.863,7.295c-0.188,0.953-0.281,2.086-0.281,3.225v23.516h-14.409V320.735z"/>
		<path fill="#4A4A4A" d="M531.912,305.468l6.919,22.756c0.758,2.75,1.703,6.162,2.273,8.631h0.289
			c0.663-2.469,1.421-5.975,2.085-8.631l5.686-22.756h15.455l-10.809,30.535c-6.638,18.393-11.09,25.787-16.307,30.434
			c-5.029,4.359-10.333,5.873-13.94,6.35l-3.03-12.23c1.797-0.281,4.077-1.139,6.256-2.467c2.179-1.133,4.553-3.412,5.975-5.779
			c0.476-0.664,0.757-1.422,0.757-2.086c0-0.477-0.094-1.234-0.663-2.373l-16.971-42.383H531.912z"/>
	</g>
</g>
</svg>
